<svg width="1200" height="800" viewBox="0 0 1200 800" fill="none" xmlns="http://www.w3.org/2000/svg">
  <defs>
    <linearGradient id="bg" x1="0" y1="0" x2="1" y2="1">
      <stop offset="0%" stop-color="#0F172A"/>
      <stop offset="100%" stop-color="#1E293B"/>
    </linearGradient>
    <linearGradient id="accent" x1="0" y1="0" x2="1" y2="0">
      <stop offset="0%" stop-color="#38BDF8"/>
      <stop offset="100%" stop-color="#A78BFA"/>
    </linearGradient>
  </defs>
  <rect width="1200" height="800" rx="48" fill="url(#bg)"/>
  <rect x="80" y="120" width="1040" height="560" rx="32" fill="#0B1220" opacity="0.65"/>
  <rect x="120" y="180" width="960" height="80" rx="16" fill="url(#accent)"/>
  <circle cx="170" cy="220" r="18" fill="#0B1220"/>
  <circle cx="220" cy="220" r="18" fill="#0B1220"/>
  <circle cx="270" cy="220" r="18" fill="#0B1220"/>
  <rect x="120" y="300" width="420" height="40" rx="10" fill="#1E293B"/>
  <rect x="120" y="360" width="520" height="26" rx="8" fill="#1E293B"/>
  <rect x="120" y="404" width="360" height="26" rx="8" fill="#1E293B"/>
  <rect x="120" y="448" width="460" height="26" rx="8" fill="#1E293B"/>
  <rect x="120" y="492" width="300" height="26" rx="8" fill="#1E293B"/>
  <rect x="660" y="300" width="420" height="240" rx="24" fill="#111827"/>
  <rect x="700" y="340" width="340" height="28" rx="10" fill="#1F2937"/>
  <rect x="700" y="388" width="300" height="28" rx="10" fill="#1F2937"/>
  <rect x="700" y="436" width="260" height="28" rx="10" fill="#1F2937"/>
  <rect x="700" y="484" width="220" height="28" rx="10" fill="#1F2937"/>
  <text x="120" y="640" font-family="Segoe UI, Roboto, Arial" font-size="56" fill="#E2E8F0" font-weight="700">Lingatec</text>
  <text x="120" y="690" font-family="Segoe UI, Roboto, Arial" font-size="28" fill="#94A3B8">Website Project</text>
</svg>
